<svg width="42" height="33" viewBox="0 0 42 33" fill="none" xmlns="http://www.w3.org/2000/svg">
<path fill-rule="evenodd" clip-rule="evenodd" d="M2.3 1.90735e-06C3.57024 1.90735e-06 4.6 1.02976 4.6 2.3C4.6 3.57025 4.6 29.9 4.6 29.9C4.6 31.1703 3.57024 32.2 2.3 32.2C1.02976 32.2 0 31.1703 0 29.9V2.3C0 1.02976 1.02976 1.90735e-06 2.3 1.90735e-06ZM20.5 0C21.7703 0 22.8 1.02976 22.8 2.3V25.3C22.8 26.5703 21.7703 27.6 20.5 27.6C19.2297 27.6 18.2 26.5703 18.2 25.3V2.3C18.2 1.02976 19.2297 0 20.5 0ZM38.9001 1.90735e-06C40.1704 1.90735e-06 41.2001 1.02976 41.2001 2.3V29.9C41.2001 31.1703 40.1704 32.2 38.9001 32.2C37.6298 32.2 36.6001 31.1703 36.6001 29.9V2.3C36.6001 1.02976 37.6298 1.90735e-06 38.9001 1.90735e-06Z" fill="white"/>
<path fill-rule="evenodd" clip-rule="evenodd" d="M11.7 1.90735e-06C12.9703 1.90735e-06 14 1.02976 14 2.3V25.3C14 26.5703 12.9703 27.6 11.7 27.6C10.4297 27.6 9.4 26.5703 9.4 25.3V2.3C9.4 1.02976 10.4297 1.90735e-06 11.7 1.90735e-06Z" fill="white"/>
<path fill-rule="evenodd" clip-rule="evenodd" d="M29.3 1.90735e-06C30.5703 1.90735e-06 31.6 1.02976 31.6 2.3V25.3C31.6 26.5703 30.5703 27.6 29.3 27.6C28.0297 27.6 27 26.5703 27 25.3V2.3C27 1.02976 28.0297 1.90735e-06 29.3 1.90735e-06Z" fill="white"/>
</svg>
