<svg xmlns="http://www.w3.org/2000/svg" version="1.1" xmlns:xlink="http://www.w3.org/1999/xlink" width="48" height="48"><svg xmlns="http://www.w3.org/2000/svg" version="1.1" xmlns:xlink="http://www.w3.org/1999/xlink" width="48" height="48"><svg id="Grilla-2" data-name="Grilla" xmlns="http://www.w3.org/2000/svg" viewBox="0 0 48 48">
  <defs>
    <style>
      .cls-1 {
        fill: #005b8e;
      }

      .cls-2 {
        fill: #009161;
      }

      .cls-3 {
        fill: #f5f5f5;
      }
    </style>
  </defs>
  <rect class="cls-3" width="48" height="48" rx="10" ry="10"></rect>
  <g>
    <path class="cls-1" d="M28.67,24c0,5.73-1.72,11.06-4.67,15.5-2.95-4.44-4.67-9.77-4.67-15.5s1.72-11.06,4.67-15.5c2.95,4.44,4.67,9.77,4.67,15.5Z"></path>
    <g>
      <path class="cls-2" d="M39.5,24c0,4.13-1.62,7.87-4.25,10.65-.34-1.5-.74-3.06-1.19-4.67.31-.64.6-1.31.85-2.01.16-.43.29-.86.42-1.28.08-.29.16-.57.23-.86.1-.43.19-.85.27-1.27.05-.26.09-.52.12-.79,0-.04.01-.07.01-.11.15-1.17.2-2.32.14-3.43-.06-1.14-.24-2.25-.52-3.29-.03-.13-.07-.26-.11-.39,0-.03-.02-.05-.03-.09-.04-.13-.08-.26-.13-.4-.03-.1-.07-.21-.11-.31-.07-.19-.14-.38-.22-.57-.05-.12-.1-.25-.16-.37-.04-.09-.08-.17-.12-.26-.05-.1-.09-.19-.14-.29-.01-.02-.02-.05-.04-.07-.05-.1-.1-.19-.15-.29-.06-.1-.12-.21-.18-.31-.05-.1-.12-.2-.18-.3-.07-.12-.16-.24-.24-.35-.06-.09-.12-.17-.18-.26-.07-.1-.14-.19-.22-.28-.13-.17-.28-.34-.42-.5-.07-.09-.15-.17-.23-.25-.09-.09-.17-.18-.26-.26-.14-.13-.28-.26-.42-.38-.07-.07-.15-.13-.22-.19-.09-.07-.18-.14-.28-.21-.11-.09-.23-.17-.34-.24-.12-.08-.24-.15-.36-.22-.12-.07-.24-.14-.37-.21-.06-.03-.13-.07-.19-.1-.19-.1-.38-.18-.57-.27,5.74,2.26,9.8,7.86,9.8,14.41Z"></path>
      <path class="cls-2" d="M18.3,38.41c-5.74-2.26-9.8-7.87-9.8-14.41,0-4.13,1.62-7.88,4.24-10.66.34,1.5.74,3.06,1.19,4.67-.31.64-.6,1.32-.86,2.02-2.86,7.86-.52,15.98,5.22,18.39Z"></path>
    </g>
  </g>
</svg></svg><style>@media (prefers-color-scheme: light) { :root { filter: none; } }
@media (prefers-color-scheme: dark) { :root { filter: none; } }
</style></svg>